PathFileType	4	(X/Y/Z)	s01c0102.trc
DataRate	CameraRate	NumFrames	NumMarkers	Units	OrigDataRate	OrigDataStartFrame	OrigNumFrames
200	200	4	48	mm	200	750	2000
Frame#	Time	racr			lacr			c7			jug			rlel			rdr			llel			ldr			s2			lic			ric			lasi			rasi			rpsi			lpsi			rgt			lgt			rth1			rth2			rth3			rth4			rlfc			rsh1			rsh2			rsh3			rsh4			rlmal			rmmal			rcal			rtoe			rmt5			lth1			lth2			lth4			lth3			llfc			lsh1			lsh2			lsh3			lsh4			llmal			lmmal			lcal			ltoe			lmt5			SBIKE			LBIKE			RBIKE			
		X1	Y1	Z1	X2	Y2	Z2	X3	Y3	Z3	X4	Y4	Z4	X5	Y5	Z5	X6	Y6	Z6	X7	Y7	Z7	X8	Y8	Z8	X9	Y9	Z9	X10	Y10	Z10	X11	Y11	Z11	X12	Y12	Z12	X13	Y13	Z13	X14	Y14	Z14	X15	Y15	Z15	X16	Y16	Z16	X17	Y17	Z17	X18	Y18	Z18	X19	Y19	Z19	X20	Y20	Z20	X21	Y21	Z21	X22	Y22	Z22	X23	Y23	Z23	X24	Y24	Z24	X25	Y25	Z25	X26	Y26	Z26	X27	Y27	Z27	X28	Y28	Z28	X29	Y29	Z29	X30	Y30	Z30	X31	Y31	Z31	X32	Y32	Z32	X33	Y33	Z33	X34	Y34	Z34	X35	Y35	Z35	X36	Y36	Z36	X37	Y37	Z37	X38	Y38	Z38	X39	Y39	Z39	X40	Y40	Z40	X41	Y41	Z41	X42	Y42	Z42	X43	Y43	Z43	X44	Y44	Z44	X45	Y45	Z45	X46	Y46	Z46	X47	Y47	Z47	X48	Y48	Z48	
750	3.7500	511.321580	1325.128993	-132.411195	499.788787	1305.606188	-433.505135	463.390670	1391.695186	-275.385463	453.305508	1229.078181	-274.645418	583.066981	1068.232463	-27.331041	739.108201	856.787218	-81.320239	507.458454	1037.298852	-549.221816	707.627471	887.687800	-455.993471	-64.042608	1174.139255	-216.853025	83.599705	1212.217108	-410.326231	111.323918	1171.796500	-84.378123	91.132144	1154.332213	-388.833263	133.166518	1126.952868	-110.692376	-29.056640	1209.631068	-165.287133	-46.329701	1222.903359	-268.163852	52.055872	1048.328157	-56.815582	44.637166	1095.601366	-439.707058	120.209668	938.743216	-37.945821	167.408280	871.436476	-43.490321	213.947897	794.476501	-51.809119	214.532326	900.827696	-52.195639	248.130513	685.670264	-78.263037	209.258850	577.347662	-47.106236	195.141698	493.862757	-52.084671	172.452767	408.387948	-63.150997	244.223064	485.201165	-86.139617	138.941887	294.994713	-84.741452	0.000000	0.000000	-0.000000	94.109752	300.622599	-137.753637	300.198860	123.546883	-145.165633	203.414799	157.928766	-67.599268	149.243260	1032.764312	-445.799561	238.107210	1031.022381	-450.421820	241.579747	1083.418966	-434.156356	322.714660	1018.705614	-441.016844	417.838879	974.842610	-431.281561	354.350363	892.855569	-443.421252	311.964736	816.182957	-443.238306	268.749532	742.453100	-430.146742	362.634089	789.233235	-420.462565	0.000000	0.000000	-0.000000	227.910750	611.323389	-333.190210	139.775581	591.259645	-370.056988	395.126340	487.656172	-382.154961	287.635979	501.695744	-446.247566	-229.012338	891.381282	-251.789494	-22.186245	81.090281	-454.727147	-21.928769	80.220922	-54.374065	
751	3.7550	511.752998	1324.601998	-133.552600	499.285681	1306.118914	-434.418700	463.406335	1391.708182	-276.112892	452.986423	1229.168347	-275.868293	583.095982	1068.276212	-27.863002	738.999481	856.419176	-80.593329	507.437020	1037.269965	-549.727880	707.480086	888.471352	-456.270375	-64.235745	1176.111794	-216.852496	82.293514	1214.227338	-410.302573	111.157107	1172.873752	-84.537246	90.602718	1156.420604	-389.002170	132.790711	1127.770220	-111.114805	-29.163901	1211.457912	-165.201913	-46.420390	1224.851980	-267.979065	51.904182	1049.963521	-57.000288	43.535003	1097.724842	-439.294266	121.360714	940.469076	-39.475022	169.546191	873.852667	-45.220160	217.159334	797.577444	-54.030221	216.157962	903.867712	-53.652006	251.067983	688.792220	-79.768400	210.190176	580.998142	-48.661896	194.361827	497.888276	-53.619733	169.942920	412.778104	-64.642119	242.955767	488.166456	-87.827118	133.413105	300.444004	-85.575185	168.157521	302.157033	-163.614504	88.692643	306.856954	-139.226013	289.785542	123.962630	-145.044619	194.079575	161.892446	-67.905915	148.038364	1033.019102	-445.364166	236.891781	1029.924814	-449.154800	240.873413	1082.483865	-433.361961	321.424138	1016.990342	-440.833640	416.356237	972.527059	-429.932309	354.431556	888.067512	-442.200060	312.764050	810.901878	-442.558578	270.471895	736.619417	-429.996609	363.727595	784.629456	-419.711487	0.000000	0.000000	-0.000000	232.185186	604.985454	-333.194949	144.354490	581.483748	-370.733487	403.911044	488.678274	-382.448831	296.053319	497.607337	-446.912038	-228.990328	891.406026	-251.740972	-22.181268	81.092319	-454.755692	-21.887749	80.240017	-54.370933	
752	3.7600	512.214190	1323.765470	-134.952035	498.842044	1306.622393	-435.237384	463.347373	1391.714525	-276.794418	452.694077	1229.176097	-277.014565	583.030240	1068.083209	-28.178357	739.341692	856.426198	-80.940051	507.714027	1037.314921	-550.169635	707.454957	889.205542	-456.381996	-64.343634	1178.037022	-216.977358	81.251495	1216.005549	-410.314293	110.983843	1173.878477	-84.829258	90.373421	1158.238105	-389.185952	132.446246	1128.754488	-111.545480	-29.315975	1213.172325	-165.195825	-46.470325	1226.592182	-267.890888	51.786640	1051.614923	-57.140623	42.463628	1099.439582	-438.729141	122.696433	942.194415	-41.106025	171.977096	876.180782	-47.048428	220.784109	800.852856	-56.346203	217.933922	906.916011	-55.424535	254.394522	692.026721	-81.418319	211.445881	584.826062	-50.275239	193.768378	502.126297	-55.248889	167.424577	417.609329	-66.084230	241.977103	491.324911	-89.731961	127.839194	306.184759	-86.360930	162.784081	306.597022	-164.329752	83.189098	313.423362	-140.699393	279.527350	125.340429	-144.867919	184.827800	166.314276	-68.329836	146.604100	1032.390814	-444.983470	235.364345	1027.791030	-448.407707	240.251482	1080.440482	-433.340989	319.404478	1013.218350	-438.740003	414.730458	968.457518	-428.768969	353.981980	881.838118	-441.488729	313.240644	804.071546	-441.799977	271.956301	729.370684	-429.847496	364.596112	778.589092	-419.091515	0.000000	0.000000	-0.000000	236.366675	597.759354	-333.171537	148.919811	570.852103	-371.374400	412.286720	488.970451	-382.713884	304.286802	492.751266	-447.631578	-228.943622	891.421409	-251.708016	-22.160720	81.123955	-454.753586	-21.861474	80.272742	-54.368976	
753	3.7650	512.616840	1322.939591	-136.374441	498.396095	1307.203762	-436.054974	463.206220	1391.799422	-277.456239	452.215878	1229.120180	-278.285917	582.884650	1067.728473	-28.217627	739.405541	856.253922	-80.655643	508.293730	1037.447350	-550.525078	707.514404	889.728880	-456.418883	-64.376872	1179.668317	-217.153288	80.719162	1217.654864	-410.573768	110.748912	1174.793123	-85.133400	90.243055	1159.614085	-389.264218	132.090159	1129.585294	-112.004385	-29.412409	1214.725640	-165.316839	-46.459697	1228.101280	-267.936287	51.735221	1053.234889	-57.327031	41.410159	1100.829844	-438.204874	124.252587	943.827668	-42.833591	174.616314	878.614257	-48.999616	224.655799	804.139764	-58.673129	219.778156	910.117685	-57.446776	258.254308	695.432986	-83.158823	212.955929	588.885222	-52.008974	193.327047	506.610359	-56.883687	164.945794	422.740189	-67.518372	241.210212	494.619312	-91.795192	122.149860	312.512501	-87.083096	157.780751	311.457000	-165.073898	77.613108	320.524634	-141.444354	269.460234	127.500252	-144.638439	175.698993	171.330206	-68.709759	145.149837	1031.025968	-444.640538	233.754991	1024.624907	-447.803641	239.551469	1077.416655	-433.291079	317.469984	1008.524094	-437.821153	412.966982	962.813295	-427.747051	353.259619	874.525193	-441.481974	313.814390	796.632475	-441.896408	273.496509	720.797281	-429.727249	365.353183	771.450590	-418.680272	0.000000	0.000000	-0.000000	240.500826	589.704017	-333.110232	153.534485	559.478193	-371.932035	420.194362	488.362257	-383.261687	311.977415	487.289104	-448.404756	-228.876458	891.417600	-251.723777	-22.120658	81.130493	-454.768331	-21.821875	80.267637	-54.384640	
